<svg width="220" height="41" fill="none" xmlns="http://www.w3.org/2000/svg"><path d="M34.684 20.22c0 8.063-6.418 14.399-14.615 14.36-7.734-.037-14.274-6.485-14.186-14.7.08-7.704 6.538-14.107 14.402-14.128 8.244-.02 14.55 6.82 14.402 14.465l-.003.002zm-4.865.197c0-.369-.203-.715-.485-.881a.68.68 0 00-.613-.056c-.61.247-1.018-.015-1.478-.278-.431-.247-.862-.5-1.306-.724a1.709 1.709 0 01-.167-.094c-.21-.138-.326-.31-.324-.645a.916.916 0 00-.368-.71c-.223-.17-.51-.235-.76-.107-.436.226-.748.119-1.056-.05a5.569 5.569 0 01-.124-.07c-.056-.032-.112-.066-.17-.098-.452-.255-.893-.531-1.353-.768a.995.995 0 01-.34-.26.843.843 0 01-.162-.43.997.997 0 00-.558-.781.649.649 0 00-.553.001c-.598.289-.977-.015-1.413-.257-.47-.263-.927-.55-1.405-.802a1.972 1.972 0 01-.127-.073c-.217-.136-.342-.299-.335-.627.006-.368-.21-.629-.531-.752a1.176 1.176 0 00-.2-.057c-.443-.083-.83.044-1.051.473-.194.378-.23.839.102 1.07l.01.007.003.002.007.004c.04.025.076.052.11.078.42.34.347.774.347 1.223.003.541-.008 1.08.005 1.621.008.323-.033.565-.35.783-.452.312-.535 1.067-.107 1.356.512.346.45.783.452 1.249.003.583-.01 1.163.005 1.746.008.289-.062.486-.317.676-.48.36-.583 1.085-.14 1.393a.57.57 0 00.01.007l.013.009.014.01c.465.327.418.723.418 1.162 0 .48-.005.955 0 1.434.005.414.036.789-.416 1.072-.366.232-.369.69-.203 1.08a1 1 0 00.167.27c.192.218.469.32.787.292.423-.036.849-.273.83-.697-.023-.596.328-.791.71-1.005.037-.02.075-.04.112-.062.485-.279.968-.56 1.441-.861.247-.156.423-.195.717-.029.724.419 1.462-.01 1.475-.85.005-.308.107-.44.346-.57.62-.336 1.236-.68 1.838-1.044.289-.174.507-.23.842-.042.54.302 1.267-.002 1.306-.596.041-.617.407-.816.815-1.037l.092-.05c.436-.24.872-.482 1.296-.74.262-.158.467-.202.784-.051.662.315 1.353-.162 1.356-.867l.002.003z" fill="#93D500"/><path d="M.004 20.49c0-10.437 7.6-19.091 17.775-20.423 1.042-.136 1.047-.136 1.04.926-.006.64.194 1.431-.107 1.881-.286.427-1.145.266-1.748.38C10.18 4.558 4.557 10.241 3.38 17.037c-.854 4.933.058 9.49 3.003 13.588.192.268.223.429-.04.666-.537.486-1.061.991-1.563 1.52-.254.265-.368.246-.592-.048a20.383 20.383 0 01-3.903-8.92c-.206-1.168-.307-2.346-.281-3.35v-.003zM40.789 19.87c-.016 4.926-1.356 8.949-3.969 12.563-.29.4-.447.403-.766.057-.522-.562-1.335-.994-1.569-1.647-.239-.669.616-1.241.966-1.866 5.65-10.051.346-22.98-11.308-25.647a14.185 14.185 0 00-1.841-.29c-.356-.03-.515-.114-.5-.507.032-.705.027-1.412 0-2.12-.012-.372.107-.437.466-.406 4.309.395 8.111 2.003 11.386 4.814 3.89 3.338 6.187 7.58 6.948 12.65.143.945.22 1.9.19 2.397l-.003.003zM20.341 40.69c-5.088-.05-9.584-1.684-13.459-5.015-.397-.34-.42-.557-.013-.895.444-.37.862-.783 1.244-1.22.317-.362.522-.354.891-.032 2.46 2.163 5.317 3.544 8.548 4.026 5.415.806 10.227-.59 14.365-4.208.345-.301.538-.364.865.013.418.487.898.921 1.371 1.356.242.224.31.375.02.635-3.053 2.758-6.604 4.473-10.674 5.097a18.635 18.635 0 01-3.163.24l.005.002zM27.899 20.37c.065.268-.083.388-.28.497-.674.37-1.307.968-2.014 1.072-.76.11-1.613.388-2.392-.018-.605-.317-1.194-.669-1.784-1.017-.517-.308-.517-.719-.005-1.026.48-.288.963-.572 1.452-.845.446-.248.867-.7 1.436-.232.012.01.028.018.047.024.044.012.1.012.135-.003.581-.277 1.041-.101 1.478.154.092.054.183.112.274.17.002 0 .003 0 .005.002.16.1.32.201.484.283.314.156.613.346.925.51.152.078.26.172.26.32a.37.37 0 01-.019.11H27.9zM19.398 21.117c.27.208.657.411.942.221.538-.359.886-.02 1.284.198.1.055.202.111.302.168a44.05 44.05 0 011.368.79c.149.09.246.186.292.284.085.185-.015.376-.3.543-.373.218-.75.43-1.126.643-.327.184-.654.368-.978.556-.213.123-.405.175-.636.042-.208-.12-.494-.154-.657-.029-.383.296-.673.122-.978-.061l-.085-.05a56.148 56.148 0 00-.712-.407l-.058-.032c-.356-.2-.711-.4-1.06-.61a.597.597 0 01-.245-.258c-.095-.209-.013-.45.244-.606.707-.43 1.426-.838 2.143-1.254.07-.042.145-.076.262-.136l-.002-.002zM20.782 19.662a1.289 1.289 0 00-.665-.193c-.241-.001-.484.071-.73.206a.062.062 0 01-.03.008c-.062 0-.162-.06-.245-.11l-.055-.033c-.683-.39-1.364-.78-2.039-1.181-.402-.242-.402-.531.013-.776.388-.228.78-.448 1.172-.669.346-.195.692-.39 1.036-.59a.604.604 0 01.31-.094c.088 0 .178.025.272.073.158.082.363.131.511.08a.28.28 0 00.086-.049.88.88 0 01.299-.166c.36-.108.66.134.979.317l.326.187.021.012.23.13.155.089c.134.076.268.152.402.23.16.091.32.184.479.279.379.223.384.588.072.793-.774.513-1.6.947-2.405 1.41-.05.029-.115.033-.191.05h-.003v-.003zM15.96 15.314l-.003-.372c-.001-.249-.003-.498.002-.746.015-.496.407-.739.84-.519l.03.016.083.046c.632.352 1.26.712 1.884 1.082l.13.077c.425.252.43.83.007 1.08-.675.398-1.358.783-2.05 1.158a.595.595 0 01-.49.026c-.231-.084-.42-.291-.431-.544a15.51 15.51 0 01-.008-.912c.001-.13.003-.261.003-.392h.002zM15.96 20.37c0-.393-.017-.786.004-1.179a.608.608 0 01.056-.231c.13-.273.456-.387.76-.216.701.393 1.4.794 2.085 1.215.259.158.351.388.28.599a.626.626 0 01-.28.322c-.685.422-1.379.83-2.08 1.223-.418.234-.808-.008-.82-.494-.014-.414 0-.828 0-1.242l-.006.003zM16.525 23.656c.035.016.066.029.095.04a1.606 1.606 0 01.175.083l.385.217.086.05h.003l.167.095a124.55 124.55 0 011.515.869c.397.231.392.522.018.754a59.01 59.01 0 01-2.244 1.325.524.524 0 01-.485.033.504.504 0 01-.278-.465c-.008-.405-.007-.809-.006-1.213.002-.404.003-.808-.005-1.212-.005-.306.175-.38.35-.454.081-.034.161-.067.222-.122h.002z" fill="#93D500"/><g opacity=".8"><path d="M198.331 32.043c-2.76 0-5.521.013-8.282-.008a8.187 8.187 0 01-2.507-.42c-2.418-.803-3.729-2.518-4.085-5-.179-1.244-.109-2.49.148-3.716.556-2.651 2.299-4.08 4.852-4.647a17.28 17.28 0 013.766-.4c2.657.002 5.314-.011 7.973.012.463.003.598-.112.592-.585-.026-2.303-1.101-3.396-3.594-3.653-1.366-.14-2.735-.115-4.104-.117-2.553-.003-5.109-.01-7.662.007-.402.003-.532-.104-.524-.517.026-1.268.02-2.537 0-3.805-.005-.382.07-.546.506-.543 4.299.015 8.597-.008 12.893.02 1.202.008 2.395.198 3.55.573 3.13 1.015 4.974 3.351 5.262 6.632.143 1.619.094 3.24.099 4.858.008 3.575-.005 7.15.013 10.726.003.484-.114.632-.616.63-2.76-.027-5.521-.014-8.285-.014v-.03l.005-.003zm-2.233-4.71c.458 0 .894-.002 1.313-.003h.189a121.377 121.377 0 012.687.013h.01c.438.008.554-.146.546-.57a91.84 91.84 0 010-3.674c.01-.45-.104-.608-.584-.603-2.281.026-4.564.005-6.844.016a9.505 9.505 0 00-1.01.052c-.343.039-.684.101-1.019.197-1.202.346-1.709 1.231-1.581 2.735.091 1.077.657 1.58 1.903 1.738 1.551.195 3.107.042 4.392.099h-.002z" fill="#93D500"/><path d="M60.793 32.074c-2.595 0-5.19-.016-7.784.013-.527.005-.657-.154-.642-.661a57.781 57.781 0 000-3.677c-.018-.538.167-.64.665-.637 4.192.02 8.387.01 12.579.013.605 0 1.197-.05 1.771-.263.852-.315 1.28-.916 1.299-1.845.023-1.08-.361-1.748-1.231-2.087-.626-.242-1.284-.31-1.954-.32-2.612-.044-5.23.123-7.84-.117a12.053 12.053 0 01-2.255-.426c-1.75-.503-2.75-1.705-3.132-3.445-.374-1.707-.4-3.427 0-5.129.633-2.716 2.506-4.088 5.13-4.587a14.434 14.434 0 012.721-.248c4.254.006 8.511.013 12.765-.01.52-.003.668.13.65.65a55.92 55.92 0 000 3.677c.018.523-.172.606-.634.604-3.571-.018-7.14-.013-10.71-.008-.746 0-1.492.042-2.23.185-1.049.203-1.568.796-1.6 1.829-.03 1.04.494 1.767 1.494 2.009.442.106.896.153 1.356.153 2.158-.002 4.317-.015 6.475.026a8.75 8.75 0 013.384.729c1.629.715 2.764 1.9 3.275 3.611.569 1.902.53 3.817-.13 5.688-.974 2.756-3.15 4.252-6.137 4.265-2.428.01-4.857 0-7.285 0v.008zM136.898 32.074c-2.574 0-5.148-.013-7.724.013-.48.005-.587-.135-.574-.59a74.122 74.122 0 000-3.802c-.013-.474.122-.583.584-.58 4.216.018 8.428.01 12.644.013.563 0 1.119-.04 1.657-.224.969-.33 1.431-.979 1.431-2.014 0-1.03-.473-1.707-1.429-2.022-.597-.195-1.213-.245-1.841-.255-2.592-.044-5.189.122-7.779-.117-.724-.068-1.436-.2-2.137-.39-1.696-.46-2.761-1.549-3.182-3.248-.46-1.865-.483-3.747.008-5.61.686-2.604 2.566-3.856 5.072-4.34a14.218 14.218 0 012.722-.244c4.257.005 8.511.01 12.768-.008.473 0 .647.099.631.609a62.15 62.15 0 000 3.739c.013.481-.14.585-.597.583-3.571-.019-7.142-.013-10.714-.008-.766 0-1.535.031-2.29.19-1.021.213-1.517.767-1.554 1.73-.044 1.14.419 1.819 1.447 2.095a5.15 5.15 0 001.356.161c1.93-.008 3.862-.005 5.792 0 1.168 0 2.319.133 3.431.508 2.376.8 3.797 2.427 4.186 4.928.211 1.35.172 2.695-.176 4.017-.808 3.06-3.14 4.855-6.322 4.871-2.47.013-4.94 0-7.412 0l.002-.005zM91.525 22.842c-2.137 0-4.275.01-6.415-.008-.41-.003-.54.102-.49.52.075.622.181 1.231.402 1.817.454 1.212 1.483 1.6 2.631 1.793.675.111 1.358.163 2.044.163 2.72-.005 5.439.013 8.158-.015.535-.005.652.156.636.66a88.241 88.241 0 00-.005 3.802c.005.354-.052.518-.467.51-3.444-.062-6.894.138-10.332-.122-3.13-.237-5.924-1.257-7.87-3.903-1.467-1.996-1.971-4.312-2.06-6.737-.083-2.235.058-4.446.91-6.549 1.428-3.518 4.192-5.266 7.807-5.883 1.73-.297 3.475-.221 5.215-.224 2.075-.005 4.15.01 6.228-.01.41-.003.585.065.574.53a61.773 61.773 0 00.003 3.802c.018.536-.19.599-.642.593-2.532-.018-5.064-.01-7.597-.007-1.038 0-2.072.052-3.085.317-1.618.422-2.8 2.191-2.566 3.794.044.296.223.244.4.247.79.005 1.576 0 2.366 0 3.509 0 7.015.008 10.524-.01.45 0 .61.088.597.575a71.272 71.272 0 00-.002 3.801c.01.437-.117.557-.553.554-2.138-.023-4.276-.01-6.416-.01h.005zM102.426 20.352c0-3.659.018-7.314-.015-10.973-.006-.624.179-.734.758-.731 3.821.026 7.639 0 11.459.02 1.475.009 2.935.193 4.358.615 2.849.846 4.226 2.883 4.641 5.711.112.763.149 1.53.149 2.298 0 4.717-.008 9.435.013 14.152 0 .526-.143.653-.655.643a121.99 121.99 0 00-4.981 0c-.489.01-.58-.154-.577-.601.016-4.468.013-8.936.003-13.403 0-.599-.032-1.207-.13-1.798-.283-1.663-.857-2.225-2.53-2.38-1.987-.186-3.982-.05-5.974-.09-.446-.007-.368.284-.368.544v7.98c0 3.035-.013 6.069.012 9.103.006.525-.145.653-.654.642a109.187 109.187 0 00-4.795 0c-.548.013-.729-.106-.724-.7.031-3.679.015-7.355.015-11.035l-.005.003zM175.59 22.722c0 2.91-.015 5.82.013 8.73.006.536-.155.643-.657.635a136.977 136.977 0 00-5.168 0c-.488.01-.574-.149-.574-.599.015-5.82 0-11.638.023-17.459 0-.552-.127-.705-.68-.682-1.099.047-2.2 0-3.301.021-.354.005-.517-.044-.509-.463a94.593 94.593 0 000-3.804c-.006-.362.111-.469.459-.448.434.029.873.021 1.307.003.885-.037 1.774.096 2.654-.07.117-.867.034-1.736.047-2.605.01-.666.044-1.327.15-1.985.354-2.18 1.348-3.193 3.528-3.588a14.46 14.46 0 012.412-.222c1.889-.023 3.779.003 5.668-.015.381-.005.496.093.488.484a87.216 87.216 0 000 3.616c.008.373-.078.51-.478.495-.912-.031-1.826-.01-2.74-.01-.395 0-.785.025-1.172.13-.948.25-1.373.712-1.451 1.69-.042.537.007 1.083-.034 1.62-.031.403.122.478.491.473 1.618-.018 3.238.002 4.857-.016.394-.005.537.083.527.51a71.636 71.636 0 000 3.68c.013.465-.159.536-.569.53-1.597-.023-3.197.006-4.795-.018-.407-.005-.514.11-.514.515.018 2.95.011 5.902.011 8.855l.007-.003z" fill="#232323"/><path d="M219.057 20.422c0 3.68-.007 7.358.011 11.038.002.486-.12.635-.618.627-1.764-.031-3.53-.026-5.296 0-.468.005-.647-.094-.644-.609.015-7.4.015-14.8 0-22.2 0-.492.135-.635.628-.627 1.764.028 3.53.033 5.296 0 .548-.01.636.182.634.674-.018 3.7-.011 7.4-.011 11.1v-.003z" fill="#93D500"/><path d="M161.781 20.388c0 3.7-.008 7.4.01 11.1 0 .45-.088.607-.574.596a197.823 197.823 0 00-5.42-.005c-.395.005-.528-.086-.528-.507.013-7.463.013-14.928 0-22.39 0-.388.073-.54.504-.534 1.826.026 3.655.026 5.483 0 .465-.008.532.167.532.572-.013 3.721-.007 7.442-.007 11.163v.005zM158.529.285c1.834 0 3.28 1.429 3.293 3.255.013 1.798-1.47 3.292-3.272 3.297a3.28 3.28 0 01-3.286-3.276c-.002-1.834 1.431-3.276 3.265-3.276z" fill="#232323"/><path d="M215.763 6.79c-1.82-.01-3.29-1.496-3.264-3.294.028-1.826 1.478-3.237 3.322-3.232a3.245 3.245 0 013.254 3.287c-.013 1.813-1.48 3.25-3.312 3.24z" fill="#93D500"/><path fill-rule="evenodd" clip-rule="evenodd" d="M197.413 27.33h.187-.189.002zm2.874.013a67.316 67.316 0 00-.003 0h.013-.01z" fill="#93D500"/></g></svg>