<svg width="155" height="62" fill="none" xmlns="http://www.w3.org/2000/svg"><path d="M51.136 31.217a.465.465 0 01-.343-.137.518.518 0 01-.138-.343c0-.077.008-.145.023-.206l5.446-14.714a.885.885 0 01.275-.434c.137-.122.328-.183.572-.183H59.9c.244 0 .434.06.572.183a.885.885 0 01.274.434l5.446 14.714c.016.06.023.13.023.206a.519.519 0 01-.137.343.465.465 0 01-.343.137h-2.38c-.229 0-.397-.053-.503-.16a.807.807 0 01-.206-.298l-.984-2.562h-6.453l-.984 2.562c-.03.092-.1.191-.206.298-.107.107-.275.16-.503.16h-2.38zm4.92-5.972h4.736l-2.357-6.59-2.38 6.59zm15.676 5.972a.557.557 0 01-.412-.16.558.558 0 01-.16-.412V15.772c0-.168.053-.306.16-.412a.557.557 0 01.412-.16h10.366c.168 0 .305.053.412.16.106.106.16.244.16.412v1.83a.53.53 0 01-.16.39.558.558 0 01-.412.16h-7.414v3.592h6.91c.168 0 .306.053.412.16.107.107.16.244.16.412v1.693a.53.53 0 01-.16.39.558.558 0 01-.412.16h-6.91v3.706h7.597c.168 0 .305.054.412.16.106.107.16.244.16.412v1.808a.558.558 0 01-.16.412.557.557 0 01-.412.16H71.732zm17.388 0a.558.558 0 01-.412-.16.558.558 0 01-.16-.412V15.772c0-.168.053-.306.16-.412a.558.558 0 01.412-.16h6.064c1.907 0 3.41.442 4.508 1.327 1.098.87 1.647 2.128 1.647 3.775 0 1.114-.267 2.044-.801 2.792-.534.747-1.25 1.304-2.15 1.67l3.226 5.72a.578.578 0 01.068.252.516.516 0 01-.137.344.465.465 0 01-.343.137h-2.54c-.275 0-.48-.069-.618-.206a1.941 1.941 0 01-.297-.412l-2.792-5.24h-2.769v5.286a.558.558 0 01-.16.412.558.558 0 01-.412.16H89.12zm3.066-8.764h2.93c.838 0 1.456-.19 1.853-.572.412-.381.617-.915.617-1.602 0-.686-.198-1.228-.594-1.624-.397-.397-1.023-.595-1.877-.595h-2.929v4.393zm15.506 8.764a.558.558 0 01-.412-.16.557.557 0 01-.16-.412V15.772c0-.168.053-.306.16-.412a.558.558 0 01.412-.16h2.586c.168 0 .305.053.412.16.107.106.16.244.16.412v14.873a.557.557 0 01-.16.412.558.558 0 01-.412.16h-2.586zm16.053.229c-1.342 0-2.517-.221-3.524-.664a5.082 5.082 0 01-2.334-2.082c-.549-.946-.823-2.143-.823-3.592V15.77c0-.167.053-.305.16-.411a.557.557 0 01.412-.16h2.494c.168 0 .305.053.412.16a.56.56 0 01.16.412v9.313c0 1.128.267 1.967.801 2.517.534.549 1.281.823 2.242.823.946 0 1.686-.274 2.22-.823.534-.55.801-1.389.801-2.517V15.77c0-.167.053-.305.16-.411a.609.609 0 01.412-.16h2.517c.152 0 .282.053.389.16a.56.56 0 01.16.412v9.336c0 1.449-.275 2.646-.824 3.592a5.1 5.1 0 01-2.311 2.082c-.992.443-2.166.664-3.524.664zm13.449-.229a.61.61 0 01-.412-.16.56.56 0 01-.16-.412V15.772a.56.56 0 01.16-.412.61.61 0 01.412-.16h2.128c.229 0 .397.06.504.183.122.122.206.213.251.274l4.211 7.757 4.256-7.757c.03-.06.099-.152.206-.274.122-.122.297-.183.526-.183h2.128c.168 0 .305.053.412.16.107.106.16.244.16.412v14.873a.557.557 0 01-.16.412.558.558 0 01-.412.16h-2.334a.531.531 0 01-.389-.16.557.557 0 01-.16-.412v-9.244l-2.906 5.445a1.36 1.36 0 01-.298.367.702.702 0 01-.48.16h-1.076a.702.702 0 01-.48-.16 1.38 1.38 0 01-.298-.367l-2.906-5.445v9.244a.557.557 0 01-.16.412.53.53 0 01-.389.16h-2.334z" fill="#00234A"/><path d="M60.85 44.146v7.267h-.45V40.597h.45v1.718h.056c.254-.563.669-1.014 1.246-1.352.582-.338 1.247-.507 1.993-.507.723 0 1.361.158 1.915.472.554.315.989.749 1.303 1.303.314.554.472 1.192.472 1.915v7.267h-.45v-7.267c0-.958-.301-1.737-.902-2.338-.601-.6-1.38-.901-2.338-.901-.638 0-1.206.139-1.704.416-.493.276-.882.659-1.169 1.147-.281.488-.422 1.047-.422 1.676zm17.254 7.492c-.944 0-1.77-.246-2.478-.74-.705-.492-1.252-1.161-1.641-2.006-.39-.845-.585-1.798-.585-2.859 0-1.06.195-2.014.585-2.859.394-.845.93-1.514 1.605-2.006a3.788 3.788 0 012.289-.74 3.85 3.85 0 011.746.402c.54.267 1.01.638 1.408 1.112.4.474.709 1.021.93 1.64.225.616.338 1.273.338 1.972v.451h-8.675v-.45h8.224c0-.87-.178-1.655-.535-2.36-.357-.708-.836-1.272-1.437-1.69a3.424 3.424 0 00-2-.626 3.32 3.32 0 00-2.013.662c-.601.441-1.082 1.042-1.444 1.802-.361.76-.551 1.62-.57 2.577v.057c0 .943.164 1.812.493 2.605.333.789.817 1.42 1.45 1.894.634.474 1.404.711 2.31.711.667 0 1.225-.117 1.676-.352.455-.234.819-.504 1.091-.81a5.45 5.45 0 00.613-.781l.366.254a5.09 5.09 0 01-.718.908c-.32.333-.728.622-1.225.866-.498.244-1.099.366-1.803.366zm13.147-11.04v.45h-4.28v-.45h4.28zm-2.704-2.592h.451v11.125c0 .423.094.787.282 1.092.188.3.436.532.746.697a2.152 2.152 0 001.373.204 2.2 2.2 0 00.36-.106l.14.423c-.14.051-.28.091-.415.12-.136.032-.289.049-.458.049-.441 0-.852-.101-1.232-.303a2.381 2.381 0 01-.909-.859c-.225-.37-.338-.81-.338-1.317V38.006zm10.907 13.407l-3.21-10.816h.478l3.014 10.196h.056l3.042-10.196h.45l3.042 10.196h.057l3.013-10.196h.479l-3.211 10.816h-.619l-2.958-9.97h-.056l-2.957 9.97h-.62zm19.198.225c-.85 0-1.613-.244-2.289-.732-.676-.493-1.211-1.162-1.605-2.007-.39-.85-.585-1.805-.585-2.866 0-1.065.195-2.02.585-2.866.394-.845.929-1.511 1.605-2a3.79 3.79 0 012.289-.739c.849 0 1.61.247 2.281.74.676.492 1.211 1.161 1.605 2.006.395.845.592 1.798.592 2.86 0 1.06-.197 2.015-.592 2.865-.389.845-.922 1.514-1.598 2.007a3.813 3.813 0 01-2.288.732zm0-.45c.765 0 1.45-.226 2.056-.677.61-.45 1.091-1.065 1.443-1.844.352-.78.528-1.657.528-2.634 0-.976-.178-1.852-.535-2.626-.352-.78-.831-1.394-1.436-1.845a3.335 3.335 0 00-2.056-.683c-.761 0-1.446.228-2.056.683-.606.45-1.087 1.066-1.444 1.845-.352.774-.528 1.65-.528 2.626 0 .977.176 1.854.528 2.634.352.779.831 1.394 1.436 1.844.611.451 1.298.676 2.064.676zm10.031.225V40.597h.451v1.718h.056c.254-.563.669-1.014 1.246-1.352.583-.338 1.247-.507 1.993-.507h.225v.451h-.225c-.638 0-1.206.139-1.704.416-.493.276-.882.659-1.169 1.147-.281.488-.422 1.047-.422 1.676v7.267h-.451zm9.166-4.366v-.817h.169l5.745-5.633h.648l-4.929 4.845-.056.056-1.577 1.55zm-.338 4.366v-14.42h.45v14.42h-.45zm6.478 0l-4.732-5.971.338-.282 4.985 6.253h-.591z" fill="#000"/><g filter="url(#a)"><path d="M7.683 53.447c6.123-2.367 12.377-4.257 18.394-4.103 3.788-.055 6.746.469 9.66 1.236 5.688 1.498 10.517 4.292 14.594 8.258-3.114-5.259-13.154-17.02-28.398-21.998-6.643-2.934-9.974-9.703-10.744-12.794-1.76 2.973-3.162 5.917-4.447 9.126-2.246 5.609-4.305 11.276-3.863 17.411.2 2.83 2.087 3.914 4.804 2.864z" fill="url(#b)"/><path d="M28.084 4.766c-4.114 2.78-7.335 6.362-10.387 10.072-2.425 2.946-4.601 5.99-6.508 9.209.77 3.09 3.972 10.041 10.615 12.976 15.244 4.976 25.433 16.592 28.548 21.851.4.387.648 1.33 1.523.885 1.184-.605 1.016-1.658.868-2.626C43.095 40.386 31.556 35.714 28.084 30.8c-5.484-7.76.758-17.834 3.434-23.443-.107-1.134.283-2.673-.883-3.353-.702-.41-1.78.24-2.55.761z" fill="url(#c)"/><path d="M39.726 30.901c-4.462-7.344-7.419-15.1-8.208-23.543-2.677 5.609-8.986 15.783-3.502 23.543 3.472 4.913 15.098 9.538 24.746 26.285-.614-3.989-2.093-7.746-3.814-11.427-2.466-5.277-6.198-9.877-9.222-14.858z" fill="url(#d)"/></g><defs><linearGradient id="b" x1="26.407" y1="31.708" x2="20.224" y2="54.352" gradientUnits="userSpaceOnUse"><stop stop-color="#50A1FE"/><stop offset="1" stop-color="#308CF9"/></linearGradient><linearGradient id="c" x1="32.018" y1="3.875" x2="32.018" y2="59.875" gradientUnits="userSpaceOnUse"><stop stop-color="#90DEFF"/><stop offset="1" stop-color="#559DF9"/></linearGradient><linearGradient id="d" x1="39.471" y1="9.689" x2="39.312" y2="57.186" gradientUnits="userSpaceOnUse"><stop stop-color="#8DDBFE"/><stop offset=".557" stop-color="#50A0FD"/><stop offset="1" stop-color="#61ACF5"/></linearGradient><filter id="a" x="0" y="0" width="55.665" height="61.637" filterUnits="userSpaceOnUse" color-interpolation-filters="sRGB"><feFlood flood-opacity="0" result="BackgroundImageFix"/><feColorMatrix in="SourceAlpha" values="0 0 0 0 0 0 0 0 0 0 0 0 0 0 0 0 0 0 127 0" result="hardAlpha"/><feOffset dy="-1.057"/><feGaussianBlur stdDeviation="1.409"/><feComposite in2="hardAlpha" operator="out"/><feColorMatrix values="0 0 0 0 0.169846 0 0 0 0 0.54079 0 0 0 0 0.865366 0 0 0 0.29 0"/><feBlend in2="BackgroundImageFix" result="effect1_dropShadow_9_75"/><feBlend in="SourceGraphic" in2="effect1_dropShadow_9_75" result="shape"/></filter></defs></svg>